<svg xmlns="http://www.w3.org/2000/svg" width="1920" height="1080" viewBox="0 0 1920 1080">
  <defs>
    <radialGradient id="moon" cx="70%" cy="25%" r="25%">
      <stop offset="0" stop-color="#ffffff" stop-opacity=".28"/>
      <stop offset="1" stop-color="#ffffff" stop-opacity="0"/>
    </radialGradient>
    <filter id="blur"><feGaussianBlur stdDeviation="18"/></filter>
  </defs>
  <rect width="1920" height="1080" fill="#030303"/>
  <circle cx="1430" cy="240" r="330" fill="url(#moon)"/>
  <circle cx="1430" cy="240" r="105" fill="#eeeeee" opacity=".9"/>
  <circle cx="1390" cy="215" r="105" fill="#030303" opacity=".18"/>
  <g transform="translate(960 590)">
    <path d="M-210 40 C-210-150-125-260 0-275 C125-260 210-150 210 40 L170 135 110 105 55 150 0 110-55 150-110 105-170 135Z" fill="#eeeeee"/>
    <path d="M-150-35 C-145-155-75-215 0-220 C75-215 145-155 150-35 C130 20 70 50 0 50 C-70 50-130 20-150-35Z" fill="#101010"/>
    <ellipse cx="-55" cy="-45" rx="36" ry="47" fill="#f5f5f5"/>
    <ellipse cx="55" cy="-45" rx="36" ry="47" fill="#f5f5f5"/>
    <ellipse cx="-55" cy="-35" rx="14" ry="28" fill="#050505"/>
    <ellipse cx="55" cy="-35" rx="14" ry="28" fill="#050505"/>
    <circle cx="-50" cy="-43" r="5" fill="#ffffff"/>
    <circle cx="60" cy="-43" r="5" fill="#ffffff"/>
    <path d="M-28 10 Q0 38 28 10" fill="none" stroke="#f5f5f5" stroke-width="5" stroke-linecap="round"/>
    <path d="M-205-125 L-285-175  -235-65Z" fill="#d8d8d8"/>
    <path d="M205-125 L285-175 235-65Z" fill="#d8d8d8"/>
  </g>
  <text x="960" y="900" text-anchor="middle" fill="#f5f5f5" opacity=".72" font-family="monospace" font-size="22" letter-spacing="10">P U L S E</text>
  <text x="960" y="940" text-anchor="middle" fill="#888888" opacity=".75" font-family="monospace" font-size="13" letter-spacing="5">GHOST DESKTOP</text>
</svg>
